<svg width="16" height="16" fill="none" xmlns="http://www.w3.org/2000/svg"><path d="M4.672 8a.5.5 0 01.5-.5H7.5V5.172a.5.5 0 011 0V7.5h2.328a.5.5 0 110 1H8.5v2.328a.5.5 0 11-1 0V8.5H5.172a.5.5 0 01-.5-.5z" fill="#000"/><path fill-rule="evenodd" clip-rule="evenodd" d="M4.878 2.513c2.058-.23 4.186-.23 6.244 0a2.657 2.657 0 012.344 2.32c.246 2.104.246 4.23 0 6.335a2.657 2.657 0 01-2.344 2.32 28.33 28.33 0 01-6.244 0 2.657 2.657 0 01-2.344-2.32 27.268 27.268 0 010-6.336 2.657 2.657 0 012.344-2.32zm6.133.993a27.335 27.335 0 00-6.022 0 1.657 1.657 0 00-1.462 1.442 26.268 26.268 0 000 6.104 1.657 1.657 0 001.462 1.442c1.984.222 4.038.222 6.022 0a1.657 1.657 0 001.462-1.442 26.271 26.271 0 000-6.104 1.657 1.657 0 00-1.462-1.442z" fill="#000"/></svg>