<svg width="24" height="24" fill="none" xmlns="http://www.w3.org/2000/svg"><path d="M7.007 12a.75.75 0 01.75-.75h3.493V7.757a.75.75 0 011.5 0v3.493h3.493a.75.75 0 010 1.5H12.75v3.493a.75.75 0 11-1.5 0V12.75H7.757a.75.75 0 01-.75-.75z" fill="#000"/><path fill-rule="evenodd" clip-rule="evenodd" d="M7.317 3.769a42.502 42.502 0 019.366 0c1.827.204 3.302 1.643 3.516 3.48.37 3.156.37 6.346 0 9.503-.215 1.837-1.69 3.275-3.516 3.48a42.511 42.511 0 01-9.366 0c-1.827-.205-3.302-1.643-3.516-3.48a40.902 40.902 0 010-9.504c.214-1.836 1.69-3.275 3.516-3.48zm9.2 1.49a41.001 41.001 0 00-9.034 0A2.486 2.486 0 005.29 7.423a39.403 39.403 0 000 9.154 2.486 2.486 0 002.193 2.163c2.977.333 6.057.333 9.034 0a2.486 2.486 0 002.192-2.163 39.401 39.401 0 000-9.154 2.486 2.486 0 00-2.192-2.164z" fill="#000"/></svg>