<svg width="24" height="24" fill="none" xmlns="http://www.w3.org/2000/svg"><path fill-rule="evenodd" clip-rule="evenodd" d="M7.345 4.017a42.252 42.252 0 019.31 0c1.713.192 3.095 1.541 3.296 3.26a40.66 40.66 0 010 9.446c-.201 1.719-1.583 3.068-3.296 3.26a42.245 42.245 0 01-9.31 0c-1.713-.192-3.095-1.541-3.296-3.26a40.653 40.653 0 010-9.445 3.734 3.734 0 013.295-3.26zM12 7.007a.75.75 0 01.75.75v3.493h3.493a.75.75 0 010 1.5H12.75v3.493a.75.75 0 11-1.5 0V12.75H7.757a.75.75 0 010-1.5h3.493V7.757a.75.75 0 01.75-.75z" fill="#000"/></svg>