<svg width="24" height="24" fill="none" xmlns="http://www.w3.org/2000/svg"><g clip-path="url(#clip0_44_427)"><path d="M12 0a12 12 0 100 24 12 12 0 000-24zm5.503 17.307a.746.746 0 01-1.029.248c-2.818-1.721-6.364-2.111-10.541-1.155a.748.748 0 11-.333-1.46c4.572-1.044 8.492-.595 11.655 1.338a.75.75 0 01.248 1.029zm1.469-3.267a.936.936 0 01-1.287.308c-3.225-1.982-8.142-2.557-11.958-1.399a.938.938 0 01-.543-1.79c4.357-1.322 9.776-.682 13.479 1.594a.936.936 0 01.309 1.287zm.126-3.402C15.231 8.34 8.85 8.128 5.157 9.249a1.122 1.122 0 11-.651-2.148C8.743 5.816 15.79 6.063 20.244 8.706a1.123 1.123 0 01-1.146 1.932z" fill="#4B84F4"/></g><defs><clipPath id="clip0_44_427"><path fill="#fff" d="M0 0h24v24H0z"/></clipPath></defs></svg>