<svg width="24" height="24" fill="none" xmlns="http://www.w3.org/2000/svg"><path fill-rule="evenodd" clip-rule="evenodd" d="M21.01 10.171l.003 3.623c-.026.345-.059.69-.099 1.034a1.272 1.272 0 01-1.122 1.105c-1.84.206-3.744.206-5.584 0a1.272 1.272 0 01-1.122-1.105 24.341 24.341 0 010-5.656 1.272 1.272 0 011.122-1.105 25.345 25.345 0 015.584 0c.587.065 1.055.53 1.122 1.105.039.332.071.666.096 1zM17 10.5a1.5 1.5 0 100 3 1.5 1.5 0 000-3z" fill="#000"/><path d="M20.404 6.04c.155.269-.137.57-.446.536a26.846 26.846 0 00-5.916 0 2.772 2.772 0 00-2.446 2.422 25.846 25.846 0 000 6.004 2.772 2.772 0 002.446 2.422 26.84 26.84 0 005.916 0c.311-.035.606.269.449.54a4.971 4.971 0 01-3.78 2.45l-.652.068a44.67 44.67 0 01-9.956-.069l-.432-.051a3.931 3.931 0 01-3.432-3.384 37.64 37.64 0 010-9.956 3.931 3.931 0 013.432-3.384l.432-.051a44.65 44.65 0 019.956-.069l.652.069a4.96 4.96 0 013.777 2.453z" fill="#000"/></svg>